# xmcd
#
# Track frame offsets:
#	150
#	18993
#	38725
#	62103
#	85435
#	106105
#	124377
#	142243
#	161115
#	181024
#
# Disc length: 2689 seconds
#
# Revision: 1
# Processed by: cddbd v1.5.2PL0 Copyright (c) Steve Scherf et al.
# Submitted via: audiograbber 1.81.03
#
DISCID=870a7f0a
DTITLE=BluesFloor - Még egyszer újra
DYEAR=1900
DGENRE=
TTITLE0=Vennék
TTITLE1=Múlik az idö
TTITLE2=Még egyszer vissza
TTITLE3=Blues ez nem kardigán
TTITLE4=Te vagy a seb magadon
TTITLE5=Ennyi volt
TTITLE6=Karrierkirálynem
TTITLE7=Oh Little girl
TTITLE8=Egyedül vagyok lány
TTITLE9=Veled kelet felé
EXTD=
EXTT0=
EXTT1=
EXTT2=
EXTT3=
EXTT4=
EXTT5=
EXTT6=
EXTT7=
EXTT8=
EXTT9=
PLAYORDER=
